<svg width="24" height="24" viewBox="0 0 24 24" fill="none" xmlns="http://www.w3.org/2000/svg">
<g clip-path="url(#clip0_720_4836)">
<path fill-rule="evenodd" clip-rule="evenodd" d="M19.317 4.68597C18.612 3.98098 17.9084 3.62649 17.0029 3.41921V2C17.0029 1.44772 16.5552 1 16.0029 1C15.4506 1 15.0029 1.44772 15.0029 2V3.15211C14.7141 3.12824 14.4073 3.10541 14.0801 3.08105C13.402 3.03058 12.7025 3 12.0029 3C11.3034 3 10.6038 3.03059 9.92566 3.08106C9.59848 3.10541 9.29176 3.12824 9.00293 3.15211V2C9.00293 1.44772 8.55521 1 8.00293 1C7.45064 1 7.00293 1.44772 7.00293 2V3.41921C6.09747 3.62649 5.39389 3.98098 4.6889 4.68597C3.37602 5.99884 3.27868 7.30684 3.08398 9.92282C3.03351 10.601 3.00293 11.3005 3.00293 12C3.00293 12.6995 3.03351 13.399 3.08398 14.0772C3.27868 16.6932 3.37603 18.0012 4.6889 19.314C6.00177 20.6269 7.30977 20.7243 9.92575 20.9189C10.6039 20.9694 11.3034 21 12.0029 21C12.7025 21 13.402 20.9694 14.0801 20.9189C16.6961 20.7243 18.0041 20.6269 19.317 19.314C20.6298 18.0012 20.7272 16.6932 20.9219 14.0772C20.9723 13.399 21.0029 12.6995 21.0029 12C21.0029 11.3005 20.9723 10.601 20.9219 9.92282C20.7272 7.30684 20.6298 5.99884 19.317 4.68597ZM5.99998 9C5.4477 9 4.99998 9.44771 4.99998 10C4.99998 10.5523 5.4477 11 5.99998 11H18C18.5523 11 19 10.5523 19 10C19 9.44771 18.5523 9 18 9H5.99998ZM15 16.4C15.7732 16.4 16.4 15.7732 16.4 15C16.4 14.2268 15.7732 13.6 15 13.6C14.2268 13.6 13.6 14.2268 13.6 15C13.6 15.7732 14.2268 16.4 15 16.4Z" fill="black"/>
</g>
<defs>
<clipPath id="clip0_720_4836">
<rect width="24" height="24" fill="white"/>
</clipPath>
</defs>
</svg>
